<svg width="1303" height="477" viewBox="0 0 1303 477" fill="none" xmlns="http://www.w3.org/2000/svg">
<path d="M175.443 377H105.619V96.9707H0.394531V26.9023H280.424V96.9707H175.443V377ZM603.59 282.518C603.59 296.189 600.986 309.129 595.778 321.336C590.569 333.38 583.408 343.878 574.293 352.83C565.341 361.782 554.762 368.862 542.555 374.07C530.511 379.279 517.571 381.883 503.737 381.883C491.367 381.883 479.485 379.767 468.092 375.535C456.699 371.141 446.364 364.793 437.086 356.492C427.972 364.793 417.718 371.141 406.325 375.535C395.094 379.767 383.213 381.883 370.68 381.883C356.845 381.883 343.906 379.279 331.862 374.07C319.817 368.862 309.238 361.782 300.123 352.83C291.172 343.878 284.091 333.38 278.883 321.336C273.675 309.129 271.071 296.189 271.071 282.518V116.014H337.721V282.518C337.721 287.075 338.535 291.388 340.162 295.457C341.953 299.363 344.313 302.863 347.242 305.955C350.335 308.885 353.834 311.245 357.741 313.035C361.81 314.663 366.123 315.477 370.68 315.477C375.237 315.477 379.55 314.663 383.619 313.035C387.688 311.245 391.269 308.885 394.362 305.955C397.454 302.863 399.814 299.363 401.442 295.457C403.232 291.388 404.127 287.075 404.127 282.518V116.014H470.534V282.518C470.534 287.075 471.429 291.388 473.219 295.457C475.009 299.363 477.369 302.863 480.299 305.955C483.392 308.885 486.891 311.245 490.797 313.035C494.866 314.663 499.179 315.477 503.737 315.477C508.294 315.477 512.607 314.663 516.676 313.035C520.745 311.245 524.244 308.885 527.174 305.955C530.267 302.863 532.708 299.363 534.498 295.457C536.289 291.388 537.184 287.075 537.184 282.518V116.014H603.59V282.518ZM730.223 44.4805C730.223 50.6654 729.003 56.4434 726.561 61.8145C724.283 67.1855 721.109 71.9056 717.04 75.9746C712.971 79.8809 708.169 83.0547 702.635 85.4961C697.264 87.7747 691.486 88.9141 685.301 88.9141C679.116 88.9141 673.257 87.7747 667.723 85.4961C662.352 83.0547 657.632 79.8809 653.563 75.9746C649.657 71.9056 646.483 67.1855 644.042 61.8145C641.763 56.4434 640.624 50.6654 640.624 44.4805C640.624 38.4583 641.763 32.7617 644.042 27.3906C646.483 21.8568 649.657 17.1367 653.563 13.2305C657.632 9.16146 662.352 5.98763 667.723 3.70898C673.257 1.26758 679.116 0.046875 685.301 0.046875C691.486 0.046875 697.264 1.26758 702.635 3.70898C708.169 5.98763 712.971 9.16146 717.04 13.2305C721.109 17.1367 724.283 21.8568 726.561 27.3906C729.003 32.7617 730.223 38.4583 730.223 44.4805ZM718.749 377H651.61V115.525H718.749V377ZM836.593 476.609H769.454V115.525H785.567L812.179 147.02C818.201 141.323 824.793 135.952 831.954 130.906C839.115 125.861 846.521 121.548 854.171 117.967C861.983 114.223 870.04 111.294 878.341 109.178C886.642 107.062 895.024 106.004 903.487 106.004C921.879 106.004 939.132 109.34 955.245 116.014C971.521 122.524 985.681 131.801 997.726 143.846C1009.93 155.89 1019.54 170.457 1026.53 187.547C1033.53 204.474 1037.03 223.273 1037.03 243.943C1037.03 265.428 1033.53 284.796 1026.53 302.049C1019.54 319.139 1009.93 333.706 997.726 345.75C985.681 357.632 971.521 366.746 955.245 373.094C939.132 379.441 921.879 382.615 903.487 382.615C897.628 382.615 891.768 381.964 885.909 380.662C880.213 379.36 874.516 377.651 868.819 375.535C863.285 373.257 857.752 370.734 852.218 367.967C846.847 365.2 841.638 362.352 836.593 359.422V476.609ZM970.138 243.943C970.138 232.876 968.347 222.947 964.767 214.158C961.349 205.369 956.629 197.964 950.606 191.941C944.584 185.757 937.504 181.036 929.366 177.781C921.228 174.526 912.602 172.898 903.487 172.898C894.373 172.898 885.746 174.526 877.608 177.781C869.633 181.036 862.634 185.757 856.612 191.941C850.59 197.964 845.789 205.369 842.208 214.158C838.79 222.947 837.081 232.876 837.081 243.943C837.081 254.523 838.79 264.207 842.208 272.996C845.789 281.785 850.59 289.272 856.612 295.457C862.634 301.642 869.633 306.443 877.608 309.861C885.746 313.279 894.373 314.988 903.487 314.988C912.602 314.988 921.228 313.279 929.366 309.861C937.504 306.443 944.584 301.642 950.606 295.457C956.629 289.272 961.349 281.785 964.767 272.996C968.347 264.207 970.138 254.523 970.138 243.943ZM1177.83 313.035C1180.43 313.849 1183.03 314.419 1185.64 314.744C1188.24 314.907 1190.85 314.988 1193.45 314.988C1199.96 314.988 1206.23 314.093 1212.25 312.303C1218.27 310.512 1223.89 307.99 1229.09 304.734C1234.47 301.316 1239.19 297.247 1243.26 292.527C1247.49 287.645 1250.9 282.273 1253.51 276.414L1302.34 325.486C1296.15 334.275 1288.99 342.169 1280.85 349.168C1272.88 356.167 1264.17 362.107 1254.73 366.99C1245.45 371.873 1235.61 375.535 1225.19 377.977C1214.93 380.581 1204.36 381.883 1193.45 381.883C1175.06 381.883 1157.72 378.465 1141.45 371.629C1125.34 364.793 1111.18 355.271 1098.97 343.064C1086.92 330.857 1077.4 316.372 1070.4 299.607C1063.4 282.68 1059.91 264.126 1059.91 243.943C1059.91 223.273 1063.4 204.393 1070.4 187.303C1077.4 170.213 1086.92 155.646 1098.97 143.602C1111.18 131.557 1125.34 122.199 1141.45 115.525C1157.72 108.852 1175.06 105.516 1193.45 105.516C1204.36 105.516 1215.02 106.818 1225.43 109.422C1235.85 112.026 1245.7 115.77 1254.97 120.652C1264.41 125.535 1273.2 131.557 1281.34 138.719C1289.48 145.717 1296.64 153.611 1302.83 162.4L1177.83 313.035ZM1212.01 175.584C1208.91 174.445 1205.82 173.712 1202.73 173.387C1199.8 173.061 1196.71 172.898 1193.45 172.898C1184.34 172.898 1175.71 174.607 1167.57 178.025C1159.6 181.281 1152.6 186.001 1146.58 192.186C1140.72 198.37 1136.08 205.857 1132.66 214.646C1129.24 223.273 1127.53 233.038 1127.53 243.943C1127.53 246.385 1127.61 249.152 1127.78 252.244C1128.1 255.337 1128.51 258.51 1129 261.766C1129.65 264.858 1130.38 267.869 1131.19 270.799C1132.01 273.729 1133.07 276.333 1134.37 278.611L1212.01 175.584Z" fill="black"/>
</svg>
